FILE "The Fountainhead [B071RXH5SN].m4b" MP3
TRACK 1 AUDIO
  TITLE "Chapter 1"
  INDEX 01 0:00:00
TRACK 2 AUDIO
  TITLE "Chapter 2"
  INDEX 01 76:35:20
TRACK 3 AUDIO
  TITLE "Chapter 3"
  INDEX 01 152:29:54
TRACK 4 AUDIO
  TITLE "Chapter 4"
  INDEX 01 226:48:28
TRACK 5 AUDIO
  TITLE "Chapter 5"
  INDEX 01 302:43:74
TRACK 6 AUDIO
  TITLE "Chapter 6"
  INDEX 01 375:27:15
TRACK 7 AUDIO
  TITLE "Chapter 7"
  INDEX 01 446:08:28
